<svg width="50" height="45" viewBox="0 0 50 45" fill="none" xmlns="http://www.w3.org/2000/svg">
<g clip-path="url(#clip0_4_41)">
<path d="M6.84122 34.0175C8.67475 35.2897 11.6475 35.2897 13.4811 34.0175C15.3145 32.7453 15.3145 30.6826 13.4811 29.4104C11.6475 28.1382 8.67475 28.1382 6.84122 29.4104C5.00768 30.6826 5.00768 32.7453 6.84122 34.0175Z" fill="#25CAAC"/>
<path d="M25.8716 16.7413C28.622 18.6495 33.081 18.6495 35.8314 16.7413C38.5816 14.8329 38.5816 11.7391 35.8314 9.83078C33.081 7.9225 28.622 7.9225 25.8716 9.83078C23.1214 11.7391 23.1214 14.8329 25.8716 16.7413Z" fill="#25CAAC"/>
<path d="M15.7695 25.3794C18.0614 26.9696 21.7773 26.9696 24.0692 25.3794C26.3611 23.7891 26.3611 21.2109 24.0692 19.6206C21.7773 18.0304 18.0614 18.0304 15.7695 19.6206C13.4776 21.2109 13.4776 23.7891 15.7695 25.3794Z" fill="#25CAAC"/>
<path d="M1.03136 24.2276C2.40651 25.1818 4.63607 25.1818 6.01123 24.2276C7.38637 23.2735 7.38637 21.7266 6.01123 20.7724C4.63607 19.8182 2.40651 19.8182 1.03136 20.7724C-0.343788 21.7266 -0.343787 23.2735 1.03136 24.2276Z" fill="#25CAAC"/>
<path d="M15.7695 6.95141C18.0614 8.54164 21.7773 8.54164 24.0692 6.95141C26.3611 5.36118 26.3611 2.78291 24.0692 1.19268C21.7773 -0.397558 18.0614 -0.397559 15.7695 1.19268C13.4776 2.78291 13.4776 5.36118 15.7695 6.95141Z" fill="#25CAAC"/>
<path d="M6.84121 15.5895C8.67475 16.8617 11.6475 16.8617 13.4811 15.5895C15.3145 14.3173 15.3145 12.2547 13.4811 10.9826C11.6475 9.71037 8.67475 9.71037 6.84121 10.9826C5.00768 12.2547 5.00769 14.3173 6.84121 15.5895Z" fill="#25CAAC"/>
<path d="M15.7695 43.8074C18.0614 45.3975 21.7773 45.3975 24.0692 43.8074C26.3611 42.2171 26.3611 39.6389 24.0692 38.0486C21.7773 36.4584 18.0614 36.4584 15.7695 38.0486C13.4776 39.6389 13.4776 42.2171 15.7695 43.8074Z" fill="#25CAAC"/>
<path d="M37.9775 25.9553C40.7278 27.8635 45.187 27.8635 47.9372 25.9553C50.6876 24.047 50.6876 20.9531 47.9372 19.0448C45.187 17.1365 40.7278 17.1365 37.9775 19.0448C35.2272 20.9531 35.2272 24.047 37.9775 25.9553Z" fill="#25CAAC"/>
<path d="M25.8716 35.1692C28.622 37.0775 33.081 37.0775 35.8314 35.1692C38.5816 33.2609 38.5816 30.167 35.8314 28.2587C33.081 26.3505 28.622 26.3505 25.8716 28.2587C23.1214 30.167 23.1214 33.2609 25.8716 35.1692Z" fill="#25CAAC"/>
</g>
<defs>
<clipPath id="clip0_4_41">
<rect width="50" height="45" fill="white"/>
</clipPath>
</defs>
</svg>
