<svg width="1440" height="261" viewBox="0 0 1440 261" fill="none" xmlns="http://www.w3.org/2000/svg">
<path fill-rule="evenodd" clip-rule="evenodd" d="M0 0L48 24.8571C96 49.7143 192 99.4286 288 124.286C384 149.143 480 149.143 576 118.071C672 87 768 24.8571 864 43.5C960 62.1429 1056 161.571 1152 198.857C1248 236.143 1344 211.286 1392 198.857L1440 186.429V261H1392C1344 261 1248 261 1152 261C1056 261 960 261 864 261C768 261 672 261 576 261C480 261 384 261 288 261C192 261 96 261 48 261H0V0Z" fill="#25CAAC"/>
</svg>
